 <svg  version="1.0" xmlns="http://www.w3.org/2000/svg"  width="900.000000pt" height="900.000000pt" viewBox="0 0 900.000000 900.000000"  preserveAspectRatio="xMidYMid meet">  <g transform="translate(0.000000,900.000000) scale(0.100000,-0.100000)" fill="#a07272" stroke="none"> <path d="M4488 5993 c-4 -130 -2 -143 18 -143 14 0 17 7 18 50 1 23 5 25 51 28 70 5 95 30 95 96 0 46 -3 53 -31 69 -19 11 -52 17 -89 17 l-58 0 -4 -117z m120 68 c25 -21 29 -63 9 -80 -8 -6 -28 -14 -45 -17 -24 -5 -32 -2 -41 14 -14 26 -3 90 18 95 30 9 38 7 59 -12z"/> <path d="M4264 6063 c-9 -21 -23 -50 -30 -65 -8 -14 -14 -33 -14 -42 0 -30 -25 -15 -75 45 -34 40 -56 58 -70 56 -21 -2 -22 -4 -5 -92 5 -27 12 -66 15 -85 12 -70 16 -80 29 -80 8 0 16 6 19 13 7 18 -7 98 -22 126 -8 15 -9 27 -3 33 6 6 24 -7 49 -36 22 -25 45 -46 50 -46 16 0 43 35 43 57 0 25 25 47 44 40 11 -4 16 -26 18 -74 2 -52 6 -68 18 -68 12 0 15 14 13 74 -1 41 -7 79 -13 85 -5 5 -10 22 -10 37 0 67 -32 79 -56 22z"/> <path d="M4860 6004 c-18 -25 -50 -65 -71 -88 -43 -45 -52 -86 -20 -86 11 0 23 9 26 20 14 45 122 11 135 -43 3 -12 14 -23 23 -25 22 -4 23 41 2 91 -8 20 -14 44 -13 54 0 10 0 42 0 71 -2 47 -4 52 -25 52 -17 0 -34 -14 -57 -46z m48 -79 c-4 -45 -14 -51 -46 -27 l-24 18 28 33 c32 38 47 30 42 -24z"/> <path d="M3770 5946 c-45 -24 -90 -83 -90 -119 0 -30 38 -94 69 -116 21 -15 44 -21 84 -21 51 0 57 2 92 41 37 41 37 43 31 102 -5 49 -11 65 -36 89 -30 28 -69 48 -93 48 -7 0 -32 -11 -57 -24z m113 -54 c53 -55 42 -120 -26 -155 l-38 -19 -38 25 c-61 41 -63 122 -3 159 41 25 75 22 105 -10z"/> <path d="M5168 5948 c-9 -7 -33 -44 -53 -83 -20 -38 -41 -74 -46 -79 -11 -12 -12 -66 -1 -66 15 0 38 33 66 94 15 32 31 54 36 50 4 -5 10 -36 13 -69 10 -100 21 -139 40 -143 12 -3 23 9 38 40 11 24 38 71 59 105 37 59 38 63 20 73 -10 5 -21 10 -23 10 -5 0 -40 -71 -50 -102 -5 -14 -45 -44 -48 -36 -1 2 -4 50 -8 107 -3 58 -11 106 -16 108 -6 2 -18 -2 -27 -9z"/> <path d="M5434 5688 c-31 -40 -62 -78 -69 -83 -7 -6 -15 -20 -19 -33 -10 -30 21 -43 41 -16 20 28 64 82 101 123 31 35 38 71 15 78 -6 2 -37 -29 -69 -69z"/> <path d="M3437 5726 c-88 -72 -88 -164 2 -231 37 -28 124 -25 158 6 34 33 53 76 53 121 0 35 -2 39 -22 36 -19 -2 -24 -11 -30 -51 -10 -75 -42 -103 -100 -87 -40 11 -76 49 -84 88 -10 47 77 120 110 93 20 -17 36 -6 36 25 0 22 -4 24 -47 24 -35 -1 -56 -7 -76 -24z"/> <path d="M5588 5577 c-92 -42 -120 -134 -64 -210 21 -29 87 -67 115 -67 32 1 96 56 120 103 l24 47 -24 47 c-13 25 -35 54 -49 64 -33 24 -89 31 -122 16z m94 -48 c26 -14 48 -67 41 -101 -14 -71 -112 -97 -160 -42 -68 79 26 193 119 143z"/> <path d="M3084 5268 c-17 -18 -40 -49 -52 -69 -19 -32 -20 -38 -7 -56 8 -12 29 -24 45 -28 17 -4 30 -10 30 -14 0 -8 55 -37 88 -46 12 -3 22 -11 22 -16 0 -5 11 -9 25 -9 14 0 25 6 25 13 0 6 7 26 16 42 9 17 18 53 21 82 5 50 4 53 -34 92 -37 38 -44 41 -94 41 -49 0 -58 -4 -85 -32z m134 -26 c29 -19 42 -43 42 -79 -1 -29 -30 -73 -49 -73 -14 0 -93 41 -109 57 -7 7 -18 13 -23 13 -20 0 3 45 38 78 38 34 54 35 101 4z"/> <path d="M5824 5241 c-28 -14 -72 -35 -98 -45 -32 -13 -46 -24 -44 -35 4 -17 56 -19 67 -4 3 5 18 14 34 20 15 7 27 17 27 23 0 13 27 13 35 -1 4 -5 -16 -49 -45 -96 -28 -47 -49 -92 -46 -100 7 -17 50 -17 66 2 6 8 22 17 33 21 41 12 124 53 136 67 9 11 8 17 -2 25 -14 12 -57 5 -57 -8 0 -5 -10 -12 -22 -16 -13 -3 -31 -13 -41 -22 -12 -10 -21 -12 -28 -5 -12 12 -1 39 50 118 22 33 40 66 40 73 1 20 -49 12 -105 -17z"/> <path d="M4295 5199 c-4 -5 -17 -14 -30 -19 -55 -21 -83 -85 -101 -236 -8 -61 14 -130 53 -166 21 -20 34 -23 102 -22 95 2 136 24 184 96 19 30 24 135 8 166 -5 9 -19 37 -31 62 -32 67 -103 130 -145 130 -19 0 -37 -5 -40 -11z m103 -72 c37 -40 92 -156 92 -193 0 -42 -30 -86 -80 -115 -49 -30 -144 -29 -174 1 -19 19 -21 31 -18 133 2 102 5 115 29 149 47 68 103 77 151 25z"/> <path d="M4702 5197 c-84 -75 -115 -120 -126 -182 -2 -16 -8 -42 -12 -57 -3 -15 -3 -36 2 -45 4 -10 9 -28 10 -41 4 -29 37 -71 76 -95 23 -14 51 -19 110 -20 78 0 80 0 116 36 l36 36 0 98 c-1 145 -27 208 -106 259 -40 26 -85 30 -106 11z m118 -69 c11 -13 22 -34 26 -48 3 -14 10 -35 15 -48 5 -12 12 -54 15 -92 6 -63 4 -73 -17 -105 -23 -34 -26 -35 -90 -35 -97 0 -144 30 -160 100 -17 76 22 175 92 234 26 22 40 27 66 23 19 -3 43 -16 53 -29z"/> <path d="M2946 4961 c-10 -11 -20 -43 -23 -74 -6 -61 -2 -66 62 -78 22 -5 58 -12 80 -17 111 -27 98 -31 122 42 35 108 7 146 -33 45 -19 -48 -25 -54 -50 -54 -27 0 -29 2 -25 35 7 68 6 74 -11 78 -15 3 -18 -4 -18 -32 0 -39 -24 -60 -63 -54 -28 4 -34 40 -13 73 31 48 9 77 -28 36z"/> <path d="M3894 4867 c-54 -38 -74 -84 -76 -184 -5 -162 15 -193 130 -197 94 -4 116 2 154 39 73 73 71 68 66 144 -4 46 -11 75 -22 86 -9 9 -16 21 -16 27 0 17 -36 57 -75 83 -46 32 -116 33 -161 2z m147 -41 c15 -13 41 -42 58 -66 26 -36 31 -52 31 -98 0 -51 -3 -58 -39 -92 -33 -31 -48 -38 -98 -44 -68 -8 -107 3 -123 35 -7 13 -11 58 -8 118 3 93 4 99 33 128 17 16 37 32 45 36 33 13 76 6 101 -17z"/> <path d="M5006 4848 c-116 -109 -127 -237 -28 -324 31 -28 45 -33 114 -39 91 -8 121 3 156 55 21 31 23 43 19 120 -5 101 -13 137 -39 170 -33 43 -69 60 -125 60 -47 0 -56 -4 -97 -42z m168 -24 c15 -12 28 -33 31 -54 4 -19 10 -45 16 -58 14 -35 11 -101 -7 -143 -15 -33 -22 -37 -64 -43 -54 -7 -105 1 -138 22 -26 17 -62 85 -62 118 0 36 37 108 76 148 34 35 41 38 79 33 24 -2 54 -13 69 -23z"/> <path d="M5985 4720 c-11 -5 -48 -9 -82 -9 -35 -1 -63 -5 -63 -11 0 -5 -1 -13 -2 -17 -2 -5 17 -10 42 -13 45 -5 45 -5 48 -47 4 -53 37 -83 93 -83 56 0 89 39 89 103 0 71 -12 87 -63 86 -23 0 -51 -4 -62 -9z m67 -47 c22 -20 23 -36 2 -68 -25 -39 -74 -32 -88 13 -14 44 1 62 58 71 5 0 18 -6 28 -16z"/> <path d="M2870 4575 c0 -86 2 -96 17 -93 11 2 20 15 23 33 l5 30 109 0 c83 0 110 3 114 14 8 22 -19 31 -101 31 -94 0 -119 10 -115 48 3 23 -1 27 -24 30 l-28 3 0 -96z"/> <path d="M4405 4613 c-11 -3 -24 -9 -29 -14 -6 -5 -17 -9 -26 -9 -40 0 -161 -124 -200 -206 -17 -33 -30 -66 -30 -72 0 -7 -4 -12 -9 -12 -5 0 -12 -15 -16 -32 -3 -18 -10 -42 -15 -53 -43 -101 -55 -271 -23 -323 32 -52 77 -92 110 -98 18 -3 36 -10 39 -15 8 -14 110 -10 141 5 15 8 46 22 67 32 22 9 51 27 65 40 24 23 71 33 71 16 0 -8 34 -24 115 -53 63 -23 179 -25 229 -4 82 34 109 87 108 213 0 54 -5 99 -11 105 -6 6 -11 20 -11 32 0 11 -9 34 -20 50 -11 17 -20 36 -20 43 0 25 -107 176 -166 236 -68 68 -99 90 -113 82 -18 -11 1 -40 80 -117 142 -141 219 -299 219 -449 0 -32 -4 -62 -10 -65 -5 -3 -10 -14 -10 -24 0 -44 -96 -87 -171 -78 -102 13 -153 25 -157 35 -2 7 -12 12 -22 12 -26 0 -44 34 -27 52 21 23 57 104 57 131 0 14 -12 39 -27 56 -23 26 -35 31 -70 31 -24 0 -43 -4 -43 -10 0 -5 -11 -12 -25 -16 -49 -12 -47 -122 4 -176 17 -18 31 -38 31 -44 0 -7 -19 -22 -42 -35 -24 -12 -54 -28 -68 -35 -14 -8 -36 -14 -49 -14 -14 0 -40 -5 -58 -12 -27 -10 -38 -10 -53 0 -11 7 -25 12 -32 12 -6 0 -26 10 -44 22 -46 32 -68 93 -61 171 7 79 24 158 37 171 6 6 10 21 10 34 0 12 9 40 19 60 11 20 27 54 37 75 10 20 22 37 26 37 5 0 8 8 8 17 0 18 106 123 124 123 6 0 25 7 41 16 17 9 53 19 80 23 35 4 50 11 50 21 0 11 -12 15 -45 17 -25 0 -54 -1 -65 -4z m157 -510 c22 -20 23 -46 2 -86 -9 -18 -20 -39 -24 -47 -4 -8 -16 -16 -26 -18 -24 -3 -54 54 -54 102 0 55 62 85 102 49z"/> <path d="M5845 4397 c-8 -28 -14 -105 -8 -125 3 -12 11 -22 19 -22 14 0 30 61 21 84 -8 21 17 38 50 34 25 -3 28 -7 29 -43 1 -60 3 -65 18 -65 11 0 16 14 18 48 3 45 4 47 35 50 27 3 33 -1 39 -21 3 -14 0 -35 -6 -47 -16 -29 -5 -52 22 -48 21 3 23 9 26 76 2 52 -1 73 -10 76 -7 3 -66 7 -131 10 -88 4 -119 2 -122 -7z"/> <path d="M3031 4344 c-12 -15 -21 -36 -21 -47 0 -40 -23 -97 -40 -97 -39 0 -54 58 -25 96 18 24 19 54 3 54 -7 0 -23 -11 -35 -24 -44 -46 -22 -154 35 -168 47 -13 86 33 100 115 7 36 11 42 32 42 22 0 25 -5 28 -38 2 -26 -2 -45 -14 -58 -33 -36 2 -59 42 -27 32 25 22 137 -15 165 -28 21 -68 15 -90 -13z"/> <path d="M6015 4058 c-7 -22 -15 -32 -25 -29 -8 2 -31 7 -50 12 -19 4 -50 15 -67 24 -39 19 -88 17 -88 -5 0 -8 16 -19 35 -25 19 -5 40 -13 45 -16 6 -4 26 -10 45 -14 19 -4 45 -13 57 -21 20 -12 21 -17 11 -39 -8 -19 -8 -29 0 -37 18 -18 42 -1 42 29 0 16 9 46 21 67 22 42 22 79 -1 84 -10 2 -19 -9 -25 -30z"/> <path d="M3095 4043 c-11 -2 -33 -10 -50 -18 -16 -7 -42 -18 -57 -24 -18 -7 -28 -18 -28 -31 0 -24 26 -26 67 -6 104 53 157 57 169 11 9 -38 1 -58 -31 -75 -17 -8 -32 -18 -35 -22 -3 -3 -19 -10 -35 -13 -65 -15 -105 -65 -52 -65 25 0 178 75 189 93 4 7 8 34 8 60 0 80 -50 111 -145 90z"/> <path d="M3303 3768 c-6 -7 -13 -24 -16 -38 -6 -23 -10 -25 -46 -22 -32 3 -45 -1 -70 -24 -39 -35 -40 -67 -1 -118 17 -22 30 -46 30 -53 0 -22 43 -14 76 15 18 15 57 43 87 62 32 20 56 42 57 53 0 21 -33 23 -50 2 -17 -21 -50 -19 -51 3 -3 38 4 68 17 83 8 8 14 23 14 32 0 20 -33 23 -47 5z m-26 -125 l33 -37 -27 -23 c-35 -31 -62 -26 -86 14 -17 30 -17 33 -1 57 22 35 43 33 81 -11z"/> <path d="M5594 3703 c-57 -52 -68 -106 -30 -142 20 -19 32 -22 59 -17 19 4 42 15 52 26 23 26 73 36 91 18 12 -11 10 -18 -9 -46 -17 -24 -29 -32 -54 -32 -36 0 -44 -19 -18 -40 19 -16 52 -4 94 36 42 39 46 89 12 123 -29 29 -55 26 -108 -10 -76 -50 -133 -26 -78 34 17 17 36 27 55 27 33 0 49 18 29 31 -23 15 -75 10 -95 -8z"/> <path d="M5414 3495 c-4 -9 16 -38 53 -76 32 -34 68 -73 81 -86 22 -24 57 -28 57 -7 0 15 -160 184 -174 184 -7 0 -14 -7 -17 -15z"/> <path d="M3480 3430 c-30 -38 -61 -69 -68 -70 -8 0 -25 9 -39 20 -31 24 -43 25 -43 3 0 -23 128 -143 146 -136 19 7 18 19 -6 43 -11 11 -20 26 -20 33 0 7 32 45 70 84 39 39 70 76 70 82 0 6 -12 11 -27 10 -22 0 -40 -15 -83 -69z"/> <path d="M5233 3345 c-3 -9 2 -24 11 -33 35 -35 96 -126 96 -142 0 -9 -12 -22 -26 -29 -14 -6 -24 -17 -22 -24 6 -17 43 -20 59 -4 8 7 35 26 61 41 44 25 68 59 54 74 -4 3 -20 -2 -35 -11 -38 -23 -62 -21 -68 3 -3 11 -9 20 -13 20 -5 0 -12 10 -16 22 -3 12 -10 26 -15 32 -5 6 -18 23 -30 39 -23 30 -46 35 -56 12z"/> <path d="M4985 3220 c-7 -11 18 -75 34 -84 6 -4 11 -20 11 -35 0 -16 7 -34 15 -41 24 -20 17 -40 -20 -56 -41 -17 -47 -44 -10 -44 14 0 33 4 43 10 9 5 35 16 57 25 22 9 46 20 54 24 24 12 7 26 -32 26 -31 0 -40 5 -52 29 -8 15 -15 33 -15 40 0 6 -6 23 -14 37 -7 14 -16 37 -20 52 -6 27 -38 38 -51 17z"/> <path d="M4082 3143 c-28 -27 -42 -48 -42 -65 0 -23 5 -26 43 -30 23 -3 50 -8 60 -12 13 -6 17 -3 17 13 0 16 -8 23 -30 28 -40 7 -43 16 -19 41 29 31 87 29 118 -3 28 -30 32 -91 8 -128 -30 -46 -109 -43 -147 6 -26 33 -50 35 -50 5 1 -43 72 -98 127 -98 49 0 113 56 132 116 12 36 11 45 -7 80 -30 59 -55 77 -116 82 -50 4 -55 2 -94 -35z"/> <path d="M4763 3138 c23 -131 51 -222 70 -226 26 -5 28 32 7 99 -11 35 -20 78 -20 95 0 31 -25 64 -49 64 -9 0 -12 -10 -8 -32z"/> <path d="M4432 3013 c3 -124 4 -128 26 -131 21 -3 29 11 23 42 -18 91 -20 111 -13 118 9 9 97 -87 117 -125 16 -32 44 -45 55 -27 6 8 8 24 5 35 -2 11 -5 64 -5 118 0 88 -2 98 -17 95 -16 -3 -18 -14 -15 -85 2 -44 -1 -83 -5 -86 -5 -3 -32 26 -59 64 -62 89 -80 109 -99 109 -13 0 -15 -19 -13 -127z"/> </g> </svg> 